<?xml version="1.0" encoding="UTF-8" standalone="no"?>
<!DOCTYPE svg PUBLIC "-//W3C//DTD SVG 1.1//EN" "http://www.w3.org/Graphics/SVG/1.1/DTD/svg11.dtd">
<svg width="100%" height="100%" viewBox="0 0 512 512" version="1.1" xmlns="http://www.w3.org/2000/svg" xmlns:xlink="http://www.w3.org/1999/xlink" xml:space="preserve" xmlns:serif="http://www.serif.com/" style="fill-rule:evenodd;clip-rule:evenodd;stroke-linejoin:round;stroke-miterlimit:2;">
    <g transform="matrix(1,0,0,1,-190.641,-310.233)">
        <g id="Layer-2" serif:id="Layer 2">
            <g id="path26" transform="matrix(1.96123,0,0,1.9505,-213.093,-338.926)">
                <ellipse cx="337.143" cy="457.469" rx="122.085" ry="122.697" style="fill:white;"/>
            </g>
            <g transform="matrix(1.98687,0,0,1.98687,-208.768,312.162)">
                <path d="M330.821,-0.823C398.461,-0.823 453.376,54.092 453.376,121.732C453.376,189.372 398.461,244.286 330.821,244.286C263.181,244.286 208.266,189.372 208.266,121.732C208.266,54.092 263.181,-0.823 330.821,-0.823ZM330.359,8.552C268.162,8.552 217.666,59.048 217.666,121.245C217.666,183.442 268.162,233.939 330.359,233.939C392.556,233.939 443.052,183.442 443.052,121.245C443.052,59.048 392.556,8.552 330.359,8.552Z" style="fill:rgb(123,86,113);"/>
            </g>
            <g transform="matrix(9.91774,0,0,9.91774,-9961.15,-6648.1)">
                <g transform="matrix(0.0659089,0,0,0.0659089,986.659,665.755)">
                    <circle cx="953.597" cy="915.403" r="332.597" style="fill:rgb(123,86,113);fill-opacity:0;"/>
                </g>
                <g transform="matrix(-0.0490858,0.0490858,-0.0490858,-0.0490858,1138.11,721.059)">
                    <path d="M867.285,865.621C874.103,907.249 910.278,939.062 953.826,939.062C972.818,939.062 990.407,933.012 1004.77,922.739C1004.77,922.739 1129.14,1047.11 1129.14,1047.11C1111.34,1060.64 1089.14,1068.67 1065.08,1068.67L842.576,1068.67C784.045,1068.67 736.524,1021.15 736.524,962.615L736.524,865.621C736.524,865.621 867.285,865.621 867.285,865.621ZM968.274,634.062L1065.08,634.062C1123.61,634.062 1171.13,681.583 1171.13,740.115L1171.13,962.615C1171.13,986.676 1163.1,1008.88 1149.57,1026.68C1149.57,1026.68 1025.2,902.307 1025.2,902.307C1035.47,887.945 1041.52,870.356 1041.52,851.365C1041.52,807.885 1009.81,771.756 968.274,764.855C968.274,764.855 968.274,634.062 968.274,634.062ZM736.524,836.726L736.524,740.115C736.524,681.583 784.045,634.062 842.576,634.062L939.379,634.062L939.379,764.855C902.606,770.964 873.536,799.981 867.348,836.727C867.349,836.726 736.524,836.726 736.524,836.726Z" style="fill:rgb(123,86,113);"/>
                    <clipPath id="_clip1">
                        <path d="M867.285,865.621C874.103,907.249 910.278,939.062 953.826,939.062C972.818,939.062 990.407,933.012 1004.77,922.739C1004.77,922.739 1129.14,1047.11 1129.14,1047.11C1111.34,1060.64 1089.14,1068.67 1065.08,1068.67L842.576,1068.67C784.045,1068.67 736.524,1021.15 736.524,962.615L736.524,865.621C736.524,865.621 867.285,865.621 867.285,865.621ZM968.274,634.062L1065.08,634.062C1123.61,634.062 1171.13,681.583 1171.13,740.115L1171.13,962.615C1171.13,986.676 1163.1,1008.88 1149.57,1026.68C1149.57,1026.68 1025.2,902.307 1025.2,902.307C1035.47,887.945 1041.52,870.356 1041.52,851.365C1041.52,807.885 1009.81,771.756 968.274,764.855C968.274,764.855 968.274,634.062 968.274,634.062ZM736.524,836.726L736.524,740.115C736.524,681.583 784.045,634.062 842.576,634.062L939.379,634.062L939.379,764.855C902.606,770.964 873.536,799.981 867.348,836.727C867.349,836.726 736.524,836.726 736.524,836.726Z"/>
                    </clipPath>
                    <g clip-path="url(#_clip1)">
                        <g transform="matrix(-5.94395,-5.94395,5.94395,-5.94395,1219.94,5924.47)">
                            <path d="M468.641,387.312L476.768,395.439C481.691,400.362 481.691,408.357 476.768,413.281L468.625,421.424L457.623,410.422C460.202,406.814 460.206,401.928 457.636,398.317C457.636,398.317 468.641,387.312 468.641,387.312Z" style="fill:rgb(143,143,143);"/>
                        </g>
                    </g>
                </g>
            </g>
        </g>
    </g>
</svg>
