<?xml version="1.0" encoding="UTF-8" standalone="no"?>
<!DOCTYPE svg PUBLIC "-//W3C//DTD SVG 1.1//EN" "http://www.w3.org/Graphics/SVG/1.1/DTD/svg11.dtd">
<svg width="100%" height="100%" viewBox="0 0 621 196" version="1.1" xmlns="http://www.w3.org/2000/svg" xmlns:xlink="http://www.w3.org/1999/xlink" xml:space="preserve" xmlns:serif="http://www.serif.com/" style="fill-rule:evenodd;clip-rule:evenodd;stroke-linejoin:round;stroke-miterlimit:2;">
    <path d="M184.034,143.913C184.034,147.533 185.214,150.562 187.574,153.001C189.934,155.441 193.104,157.427 197.085,158.962C201.065,160.496 205.662,161.598 210.875,162.267C216.088,162.935 221.512,163.27 227.148,163.27C233.065,163.27 238.63,162.896 243.844,162.149C249.057,161.401 253.6,160.26 257.475,158.726C261.349,157.191 264.414,155.204 266.668,152.765C268.922,150.326 270.05,147.375 270.05,143.913L270.05,52.087L298.158,54.447L298.158,151.467C298.158,155.716 297.224,159.611 295.358,163.152C293.491,166.693 290.902,169.86 287.591,172.653C284.28,175.446 280.37,177.866 275.861,179.912C271.353,181.958 266.474,183.649 261.226,184.987C255.978,186.325 250.448,187.328 244.636,187.997C238.824,188.666 232.995,189 227.148,189C221.23,189 215.383,188.666 209.607,187.997C203.83,187.328 198.317,186.325 193.069,184.987C187.821,183.649 182.943,181.958 178.434,179.912C173.925,177.866 170.016,175.446 166.705,172.653C163.394,169.86 160.805,166.712 158.938,163.211C157.071,159.709 156.138,155.795 156.138,151.467L156.138,54.447L184.034,52.087L184.034,143.913Z" style="fill:rgb(121,86,112);"/>
    <g>
        <path d="M68.897,52.087C75.096,52.087 81.595,52.874 88.393,54.447C95.191,56.021 101.795,58.067 108.206,60.585L108.206,10.27L135.891,7L135.891,177.433C132.158,178.692 127.702,179.872 122.524,180.974C117.346,182.076 111.799,183.04 105.881,183.866C99.964,184.692 93.817,185.361 87.442,185.872C81.066,186.384 74.885,186.639 68.897,186.639C58.048,186.639 48.362,185.794 39.837,184.102C31.313,182.41 24.093,179.794 18.175,176.253C12.258,172.712 7.749,168.227 4.649,162.798C1.55,157.368 0,150.916 0,143.441L0,95.285C0,87.81 1.55,81.358 4.649,75.929C7.749,70.499 12.258,66.014 18.175,62.473C24.093,58.933 31.313,56.316 39.837,54.625C48.362,52.933 58.048,52.087 68.897,52.087ZM76.505,164.686C79.323,164.686 82.193,164.529 85.117,164.214C88.041,163.899 90.894,163.466 93.676,162.916C96.459,162.365 99.101,161.735 101.601,161.027C104.102,160.319 106.304,159.572 108.206,158.785L108.206,84.663C103.345,82.066 98.361,79.922 93.254,78.23C88.146,76.538 82.563,75.693 76.505,75.693C72.137,75.693 67.893,75.791 63.772,75.988C59.651,76.184 55.794,76.617 52.201,77.286C48.608,77.955 45.297,78.899 42.268,80.119C39.239,81.338 36.65,82.971 34.501,85.017C32.353,87.063 30.679,89.581 29.482,92.571C28.284,95.561 27.685,99.141 27.685,103.311L27.685,138.012C27.685,144.385 29.006,149.362 31.648,152.942C34.29,156.522 37.83,159.178 42.268,160.909C46.706,162.64 51.884,163.703 57.801,164.096C63.719,164.489 69.953,164.686 76.505,164.686Z" style="fill:rgb(121,86,112);"/>
        <path d="M554.005,54.447C560.205,54.447 566.703,55.234 573.501,56.808C580.3,58.382 586.904,60.428 593.315,62.946L593.315,12.631L621,9.361L621,179.794C617.266,181.053 612.811,182.233 607.633,183.335C602.455,184.436 596.907,185.4 590.99,186.226C585.072,187.053 578.926,187.721 572.55,188.233C566.175,188.744 559.993,189 554.005,189C543.157,189 533.47,188.154 524.946,186.462C516.422,184.771 509.201,182.154 503.284,178.613C497.366,175.073 492.858,170.588 489.758,165.158C486.659,159.729 485.109,153.277 485.109,145.802L485.109,97.646C485.109,90.171 486.659,83.719 489.758,78.289C492.858,72.86 497.366,68.375 503.284,64.834C509.201,61.293 516.422,58.677 524.946,56.985C533.47,55.293 543.157,54.447 554.005,54.447ZM561.614,167.047C564.431,167.047 567.302,166.889 570.226,166.575C573.149,166.26 576.002,165.827 578.785,165.276C581.568,164.725 584.209,164.096 586.71,163.388C589.211,162.68 591.412,161.932 593.315,161.145L593.315,87.023C588.454,84.427 583.47,82.283 578.362,80.591C573.255,78.899 567.672,78.053 561.614,78.053C557.246,78.053 553.002,78.152 548.88,78.348C544.759,78.545 540.902,78.978 537.31,79.647C533.717,80.315 530.406,81.26 527.377,82.479C524.347,83.699 521.758,85.332 519.61,87.377C517.461,89.423 515.788,91.941 514.591,94.931C513.393,97.921 512.794,101.502 512.794,105.672L512.794,140.372C512.794,146.746 514.115,151.723 516.757,155.303C519.399,158.883 522.938,161.539 527.377,163.27C531.815,165.001 536.993,166.063 542.91,166.457C548.828,166.85 555.062,167.047 561.614,167.047Z" style="fill:rgb(143,143,143);"/>
        <path d="M319.672,159.205L319.672,90.517C319.672,85.245 320.835,80.661 323.159,76.766C325.484,72.872 328.584,69.547 332.458,66.793C336.333,64.039 340.788,61.777 345.825,60.006C350.862,58.236 356.093,56.859 361.517,55.875C366.942,54.892 372.349,54.203 377.738,53.81C383.127,53.416 388.146,53.22 392.796,53.22C396.388,53.22 400.721,53.416 405.793,53.81C410.865,54.203 416.131,54.892 421.591,55.875C427.05,56.859 432.457,58.236 437.811,60.006C443.165,61.777 447.973,64.039 452.235,66.793C456.497,69.547 459.949,72.872 462.59,76.766C465.232,80.661 466.553,85.245 466.553,90.517L466.553,130.694L345.456,130.694L345.456,144.149C345.456,147.375 346.23,150.149 347.78,152.47C349.33,154.791 351.408,156.759 354.015,158.372C356.621,159.985 359.615,161.283 362.997,162.267C366.378,163.25 369.9,164.017 373.564,164.568C377.227,165.119 380.873,165.473 384.501,165.63C388.129,165.788 391.528,165.866 394.698,165.866C397.727,165.866 400.95,165.788 404.366,165.63C407.783,165.473 411.182,165.139 414.564,164.627C417.945,164.116 421.203,163.368 424.338,162.385C427.473,161.401 430.22,160.122 432.58,158.549C434.94,156.975 436.825,155.027 438.234,152.706C438.445,152.358 440.686,149.389 440.865,149.021L466.553,151.632L466.553,151.703C466.553,156.975 465.232,161.558 462.59,165.453C459.949,169.348 456.497,172.673 452.235,175.427C447.973,178.181 443.165,180.443 437.811,182.213C432.457,183.984 427.05,185.361 421.591,186.344C416.131,187.328 410.865,188.016 405.793,188.41C400.721,188.803 396.388,189 392.796,189C388.146,189 383.127,188.803 377.738,188.41C372.349,188.016 366.942,187.328 361.517,186.344C356.093,185.361 350.862,183.984 345.825,182.213C340.788,180.443 336.074,178.704 332.458,175.427C320.499,165.737 319.672,159.205 319.672,159.205ZM345.456,111.526L440.347,111.526L440.347,97.835C440.347,94.608 439.643,91.835 438.234,89.514C436.825,87.192 434.94,85.245 432.58,83.671C430.22,82.097 427.473,80.819 424.338,79.835C421.203,78.852 417.945,78.104 414.564,77.593C411.182,77.081 407.783,76.747 404.366,76.589C400.95,76.432 397.727,76.353 394.698,76.353C391.528,76.353 388.129,76.432 384.501,76.589C380.873,76.747 377.227,77.101 373.564,77.652C369.9,78.202 366.378,78.97 362.997,79.953C359.615,80.937 356.621,82.235 354.015,83.848C351.408,85.461 349.33,87.428 347.78,89.75C346.23,92.071 345.456,94.844 345.456,98.071L345.456,111.526Z" style="fill:rgb(143,143,143);"/>
    </g>
</svg>
